<svg xmlns="http://www.w3.org/2000/svg" xmlns:xlink="http://www.w3.org/1999/xlink" id="Layer_1" x="0" y="0" version="1.1" viewBox="0 0 1024 1024" xml:space="preserve" style="enable-background:new 0 0 1024 1024"><style type="text/css">.st0{fill:#010101}.st1{fill:#977838}.st2{fill:#fff}</style><g><path d="M2,842c0,99.4,80.6,180,180,180h660c99.4,0,180-80.6,180-180V182c0-99.4-80.6-180-180-180H182 C82.6,2,2,82.6,2,182V842z" class="st0"/></g><rect width="1020" height="14" x="2" y="832" class="st1"/><path d="M463.6,539.3c0,0-12.3-0.2-16.7-0.4c-72.1-0.6-59,1.8-59.7,64.2c-0.6,53.5-0.1,107.1-0.1,162.7H245.9V70.7	c7.7,0.4,9.1,0.1,13.7,0.1c116.2,1.4,232.6-1.3,348.5,5.9c94.4,5.9,179.7,47.8,205.6,154.1c26.6,109.5,2.2,219.3-118,274.8	c-25,11.5-21.9,22.3-9.8,39.6c42,60.1,83.7,120.4,125.4,180.9c8.1,11.9,15.4,24.3,26.6,41.8c-56,0-166.3-0.5-166.3-0.5l-7.4-11.4	L441.2,423.9c0,0-2.5-3.9-4.2-7.8c39.8,0,83.2,1.4,122.8-0.4c50.9-2.2,91.6-21.1,112-72.4c19.6-49-8.1-114.8-59.3-130.6	c-22.4-6.8-46.3-10.8-69.6-11.7c-50-1.8-100.1-0.6-154.5-0.6c0,33.7,0,66.1,0,98.5C388.3,416,388,416,388,416" class="st2"/></svg>