<svg xmlns="http://www.w3.org/2000/svg" xmlns:xlink="http://www.w3.org/1999/xlink" id="Layer_1" x="0" y="0" version="1.1" viewBox="0 0 1024 1024" xml:space="preserve" style="enable-background:new 0 0 1024 1024"><style type="text/css">.st0{stroke:#fff;stroke-miterlimit:10}.st1{fill:#fff}.st2{fill:none;stroke:#977838;stroke-width:30;stroke-miterlimit:10}</style><rect width="1024" height="1024" class="st0"/><path d="M455.4,570.5c0,0-10.4-0.2-14.2-0.3c-61.2-0.5-50.1,1.5-50.7,54.5c-0.5,45.4-0.1,90.9-0.1,138.1H270.8V172.9	c6.5,0.3,7.7,0.1,11.6,0.1c98.6,1.2,197.4-1.1,295.7,5c80.1,5,152.5,40.6,174.5,130.8c22.6,92.9,1.9,186.1-100.1,233.2	c-21.2,9.8-18.6,18.9-8.3,33.6c35.6,51,71,102.2,106.4,153.5c6.9,10.1,13.1,20.6,22.6,35.5c-47.5,0-141.1-0.4-141.1-0.4l-6.3-9.7	L436.5,472.6c0,0-2.1-3.3-3.6-6.6c33.8,0,70.6,1.2,104.2-0.3c43.2-1.9,77.7-17.9,95-61.4c16.6-41.6-6.9-97.4-50.3-110.8	c-19-5.8-39.3-9.2-59.1-9.9c-42.4-1.5-84.9-0.5-131.1-0.5c0,28.6,0,56.1,0,83.6c0,11,1.8,99.5,1.8,99.5" class="st1"/><line x1="0" x2="1024" y1="910.9" y2="910.9" class="st2"/></svg>