<svg xmlns="http://www.w3.org/2000/svg" width="1365.333" height="1365.333" preserveAspectRatio="xMidYMid meet" version="1.0" viewBox="0 0 1024 1024"><metadata>Created by potrace 1.14, written by Peter Selinger 2001-2017</metadata><g fill="#000" stroke="none"><path d="M1610 10209 c-600 -68 -1137 -448 -1405 -994 -95 -194 -151 -387 -174 -597 -15 -136 -15 -6860 0 -6996 23 -209 79 -401 175 -599 30 -61 54 -116 54 -122 0 -6 4 -11 9 -11 4 0 27 -30 51 -66 65 -101 148 -200 252 -300 288 -278 652 -450 1050 -493 136 -15 6860 -15 6996 0 398 43 762 215 1050 493 104 100 187 199 252 300 24 36 47 66 51 66 5 0 9 5 9 11 0 6 24 61 54 122 96 198 152 390 175 599 15 136 15 6860 0 6996 -76 693 -542 1274 -1207 1506 -118 41 -252 71 -384 85 -119 13 -6893 13 -7008 0z m3390 -1519 c954 -21 1314 -47 1620 -121 413 -99 733 -266 994 -518 292 -283 460 -612 556 -1091 122 -607 76 -1139 -139 -1595 -195 -413 -525 -734 -1004 -976 -221 -112 -267 -158 -253 -253 9 -59 23 -82 413 -641 653 -939 961 -1389 1074 -1568 63 -100 116 -184 117 -189 4 -10 -1320 -11 -1526 -1 l-142 6 -22 36 c-12 20 -531 794 -1154 1721 -622 927 -1139 1700 -1148 1718 l-17 32 538 0 c731 0 897 12 1113 77 234 70 439 219 569 412 271 401 247 885 -63 1270 -150 186 -357 286 -726 350 -223 39 -303 43 -1111 48 l-797 5 -4 -1078 -4 -1079 376 -615 377 -615 -296 -6 c-238 -5 -306 -9 -348 -23 -59 -19 -97 -57 -113 -114 -6 -24 -10 -395 -10 -1084 l0 -1048 -705 0 -705 0 0 3479 0 3478 1033 -4 c567 -2 1246 -8 1507 -13z" transform="translate(0.000000,1024.000000) scale(0.100000,-0.100000)"/></g></svg>