<svg xmlns="http://www.w3.org/2000/svg" xmlns:xlink="http://www.w3.org/1999/xlink" id="Layer_1" x="0" y="0" version="1.1" viewBox="0 0 1600 300" xml:space="preserve" style="enable-background:new 0 0 1600 300"><style type="text/css">.st0{fill:#fff}</style><g><path d="M968.3,71c9.7,0,19.2,0,29.3,0c0,24.7,0,49.2,0,73.7c0.3,0.1,0.7,0.2,1,0.2c9.5-12.5,19.1-25.1,28.6-37.6 c8.4-11,16.9-21.9,25-33.1c2-2.8,4.2-3.7,7.5-3.6c9.6,0.2,19.3,0.1,30,0.1c-1.5,2.2-2.5,3.6-3.5,5c-10.3,13.7-20.7,27.4-30.9,41.2 c-1.1,1.4-1.7,4.1-1.2,5.6c13.4,35.5,26.9,71,40.4,106.5c0.3,0.7,0.7,1.3,1.6,3c3.1-10.9,6-20.7,8.8-30.6 c12-42.1,24.1-84.2,36-126.4c0.9-3.2,2.1-4.7,5.7-4.5c6.5,0.3,13-0.1,19.5,0.2c1.4,0.1,3.7,1.6,4.1,2.9 c15.3,52.6,30.4,105.3,45.5,158c0,0.1-0.1,0.3-0.2,1.2c-8.7,0-17.6,0.1-26.5-0.2c-0.9,0-2.2-2.2-2.6-3.5 c-3.2-10.5-6.1-21.1-9.2-31.7c-0.4-1.4-0.9-2.8-1.3-4.3c-13.4,0-26.5,0-40.1,0c-2.9,11.5-6.1,22.9-8.7,34.4c-1,4.2-2.7,5.5-7,5.4 c-16.7-0.3-33.3-0.2-50,0c-3.8,0.1-5.5-1.1-6.9-4.6c-9.7-25.2-19.7-50.2-29.6-75.3c-0.7-1.8-1.5-3.6-3-7.1c-1,1.8-1.4,2.9-2.1,3.8 c-9.6,12.6-19.3,25.1-28.7,37.8c-1.4,2-2.3,4.8-2.4,7.3c-0.2,12.5-0.1,25-0.1,37.8c-10,0-19.5,0-29.3,0 C968.3,178.8,968.3,125.2,968.3,71z M1156.6,120.7c-0.4,0-0.7,0-1.1,0.1c-3.9,15-7.8,29.9-11.7,45.2c8.4,0,16.2,0,24.4,0 C1164.2,150.7,1160.4,135.7,1156.6,120.7z" class="st0"/><path d="M98.8,203.7c22.9,0,45.7,0,68.8,0c0-12.5,0-24.6,0-37.4c-4.1,0-8.2,0-12.3,0c-11.2,0-22.3,0.1-33.5-0.1 c-2.2-0.1-4.8-1.2-6.5-2.6c-5.2-4.7-10.1-9.7-14.8-14.8c-1.4-1.5-2.5-4-2.5-6c-0.2-15.8-0.2-31.7,0-47.5c0-2,1.1-4.5,2.5-6 c5.8-6,10.9-13.7,18.1-16.8c6.6-2.9,15.4-0.8,23.2-0.8c12.8,0,25.7,0.1,38.5-0.1c3.6-0.1,5.9,1.5,8.8,3.5c9.1,6.5,10.6,15.3,9,25.4 c0,0.2-0.1,0.3-0.4,1c-22.5,0-45.2,0-68.4,0c0,11.8,0,23,0,34.9c2.2,0,4.5,0,6.8,0c12.8,0,25.7-0.1,38.5,0.1c2.3,0,4.9,1.4,6.9,2.9 c2.4,1.7,4,4.6,6.4,6.3c9.4,6.8,12.3,15.7,11.3,27.1c-1,12.1-0.1,24.3-0.4,36.5c-0.1,2.5-1.3,5.5-3.1,7.3 C190.1,222.4,185,230,178,233c-6.6,2.9-15.4,0.8-23.2,0.8c-12.8,0-25.7-0.1-38.5,0.1c-3.6,0.1-6-1.4-8.8-3.5 c-8.6-6.3-10.7-14.6-9.2-24.4C98.3,205.5,98.5,205,98.8,203.7z" class="st0"/><path d="M1257.5,204.2c14.1,0,27.5,0,41.5,0c0-44.3,0-88.4,0-133c10,0,19.6,0,30,0c0,1.6,0,3.4,0,5.1 c0,43.9,0,87.7,0.1,131.6c0,3.5-1,5.9-3.5,8.3c-5.9,5.4-10.6,13.2-17.5,16c-6.7,2.8-15.4,0.7-23.2,0.8c-11,0-22,0.1-33-0.1 c-2.1,0-4.5-1.1-6-2.5c-5.4-5-10.5-10.2-15.6-15.5c-1.1-1.2-2.1-3.1-2.1-4.7c-0.1-45.9-0.1-91.7,0-137.6c0-0.3,0.1-0.6,0.3-1.4 c9.4,0,19,0,29.1,0C1257.5,115.4,1257.5,159.7,1257.5,204.2z" class="st0"/><path d="M1421.7,193.2c-12.7,0-24.9,0.1-37-0.1c-3,0-3.5,1.6-4.1,3.8c-2.7,10.7-5.6,21.3-8.1,32 c-0.8,3.3-2.1,4.3-5.4,4.2c-8.1-0.2-16.3-0.1-25.2-0.1c0.5-2.3,0.9-4.1,1.4-5.9c14.5-50.6,29-101.2,43.3-151.8 c1-3.6,2.6-4.7,6.2-4.6c6,0.3,12,0.3,18,0c3.6-0.2,4.8,1.2,5.8,4.5c12.1,42.6,24.4,85.2,36.6,127.8c2.8,9.7,5.6,19.5,8.5,29.7 c-9.8,0-19,0-28.7,0C1429.3,219.7,1425.6,206.6,1421.7,193.2z M1402.1,120.5c-0.3,0-0.6,0-0.9,0c-3.9,15-7.8,30.1-11.8,45.3 c8.2,0,16.1,0,24.3,0C1409.7,150.3,1405.9,135.4,1402.1,120.5z" class="st0"/><path d="M433.3,100c-22.5,0-44.9,0-67.5,0c0,35.3,0,70,0,105.3c22.7,0,45.2,0,67.6,0c1.3,5,0.7,8.7-3.1,12 c-5.9,5.2-10.4,12.9-17.1,15.7c-6.5,2.8-15.1,0.8-22.7,0.8c-10,0-20,0.2-30-0.1c-2.5-0.1-5.4-1.4-7.3-3.1 c-5.9-5.4-13.5-10.4-16.3-17.3c-2.8-6.8-0.8-15.7-0.8-23.7c0-30.8,0-61.7-0.1-92.5c0-3.7,0.8-6.6,3.7-9.2 c5.7-5.1,10.1-12.8,16.7-15.4c6.7-2.8,15.4-0.9,23.2-0.9c9.8-0.1,19.7,0.1,29.5-0.1c3.5-0.1,6,1,8.3,3.5c4,4.3,8,8.5,12.4,12.4 C433.4,90.6,435,94.2,433.3,100z" class="st0"/><path d="M223.9,233.4c0-53.9,0-107.5,0-161.5c9.7,0,19.2,0,29.1,0c0,44.3,0,88.4,0,133.2c21.7,0,43.1,0,64.8,0 c0,9.8,0,18.9,0,28.3C286.6,233.4,255.4,233.4,223.9,233.4z" class="st0"/><path d="M732.8,225.4c-13.8,0-26.8,0.1-39.8-0.2c-1.4,0-3.3-1.9-4.1-3.4c-17.8-35.1-35.5-70.2-53.1-105.3 c-6.5-12.9-13.1-25.9-19.6-38.8c-0.7-1.4-1.3-2.9-2.2-4.8c1.8-0.2,3-0.4,4.3-0.4c11.2,0,22.3,0.1,33.5-0.1c3.1,0,4.7,1,6.1,3.8 c13.7,27.4,27.5,54.8,41.3,82.2c10.3,20.5,20.7,41.1,31,61.6C731,221.4,731.7,222.9,732.8,225.4z" class="st0"/><path d="M1503.8,232.7c-10,0-19.5,0-29.2,0c0-54,0-107.7,0-161.7c9.8,0,19.3,0,29.2,0 C1503.8,124.9,1503.8,178.6,1503.8,232.7z" class="st0"/><path d="M689.4,72.8c14.7,0,28.7,0,43.6,0c-7.2,14.2-14.1,28.1-21.7,43.1C703.7,101.2,696.7,87.3,689.4,72.8z" class="st0"/><path d="M657.4,225.2c-14.7,0-28.6,0-43.5,0c7.2-14.3,14.2-28.1,21.7-43C643.1,196.9,650.1,210.8,657.4,225.2z" class="st0"/></g></svg>